HIERARCHY
ROOT Hips
{
	OFFSET 0.00000 0.00000 0.00000
	CHANNELS 6 Xposition Yposition Zposition Zrotation Yrotation Xrotation 
	JOINT LHipJoint
	{
		OFFSET 0 0 0
		CHANNELS 3 Zrotation Yrotation Xrotation
		JOINT LeftUpLeg
		{
			OFFSET 1.36337 -1.57426 1.11036
			CHANNELS 3 Zrotation Yrotation Xrotation
			JOINT LeftLeg
			{
				OFFSET 2.38468 -6.55187 0.00000
				CHANNELS 3 Zrotation Yrotation Xrotation
				JOINT LeftFoot
				{
					OFFSET 2.37166 -6.51609 0.00000
					CHANNELS 3 Zrotation Yrotation Xrotation
					JOINT LeftToeBase
					{
						OFFSET 0.29078 -0.79891 2.01393
						CHANNELS 3 Zrotation Yrotation Xrotation
						End Site
						{
							OFFSET 0.00000 -0.00000 1.07924
						}
					}
				}
			}
		}
	}
	JOINT RHipJoint
	{
		OFFSET 0 0 0
		CHANNELS 3 Zrotation Yrotation Xrotation
		JOINT RightUpLeg
		{
			OFFSET -1.36349 -1.57426 1.11036
			CHANNELS 3 Zrotation Yrotation Xrotation
			JOINT RightLeg
			{
				OFFSET -2.29562 -6.30717 0.00000
				CHANNELS 3 Zrotation Yrotation Xrotation
				JOINT RightFoot
				{
					OFFSET -2.40985 -6.62100 0.00000
					CHANNELS 3 Zrotation Yrotation Xrotation
					JOINT RightToeBase
					{
						OFFSET -0.23197 -0.63733 1.92232
						CHANNELS 3 Zrotation Yrotation Xrotation
						End Site
						{
							OFFSET -0.00000 -0.00000 1.01562
						}
					}
				}
			}
		}
	}
	JOINT LowerBack
	{
		OFFSET 0 0 0
		CHANNELS 3 Zrotation Yrotation Xrotation
		JOINT Spine
		{
			OFFSET -0.08565 2.03602 -0.24562
			CHANNELS 3 Zrotation Yrotation Xrotation
			JOINT Spine1
			{
				OFFSET -0.00036 2.05693 0.00216
				CHANNELS 3 Zrotation Yrotation Xrotation
				JOINT Neck
				{
					OFFSET 0 0 0
					CHANNELS 3 Zrotation Yrotation Xrotation
					JOINT Neck1
					{
						OFFSET -0.03664 1.69515 0.31789
						CHANNELS 3 Zrotation Yrotation Xrotation
						JOINT Head
						{
							OFFSET 0.00932 1.70181 -0.46013
							CHANNELS 3 Zrotation Yrotation Xrotation
							End Site
							{
								OFFSET 0.01243 1.77620 -0.19377
							}
						}
					}
				}
				JOINT LeftShoulder
				{
					OFFSET 0 0 0
					CHANNELS 3 Zrotation Yrotation Xrotation
					JOINT LeftArm
					{
						OFFSET 3.74344 0.81315 -0.36647
						CHANNELS 3 Zrotation Yrotation Xrotation
						JOINT LeftForeArm
						{
							OFFSET 4.97185 -0.00000 -0.00000
							CHANNELS 3 Zrotation Yrotation Xrotation
							JOINT LeftHand
							{
								OFFSET 3.35811 -0.00000 0.00000
								CHANNELS 3 Zrotation Yrotation Xrotation
								JOINT LeftFingerBase
								{
									OFFSET 0 0 0
									CHANNELS 3 Zrotation Yrotation Xrotation
									JOINT LeftHandIndex1
									{
										OFFSET 0.62278 -0.00000 0.00000
										CHANNELS 3 Zrotation Yrotation Xrotation
										End Site
										{
											OFFSET 0.50210 -0.00000 0.00000
										}
									}
								}
								JOINT LThumb
								{
									OFFSET 0 0 0
									CHANNELS 3 Zrotation Yrotation Xrotation
									End Site
									{
										OFFSET 0.50976 -0.00000 0.50976
									}
								}
							}
						}
					}
				}
				JOINT RightShoulder
				{
					OFFSET 0 0 0
					CHANNELS 3 Zrotation Yrotation Xrotation
					JOINT RightArm
					{
						OFFSET -3.75385 0.50666 -0.06525
						CHANNELS 3 Zrotation Yrotation Xrotation
						JOINT RightForeArm
						{
							OFFSET -4.96493 -0.00000 -0.00000
							CHANNELS 3 Zrotation Yrotation Xrotation
							JOINT RightHand
							{
								OFFSET -3.34929 -0.00000 0.00000
								CHANNELS 3 Zrotation Yrotation Xrotation
								JOINT RightFingerBase
								{
									OFFSET 0 0 0
									CHANNELS 3 Zrotation Yrotation Xrotation
									JOINT RightHandIndex1
									{
										OFFSET -0.63804 -0.00000 0.00000
										CHANNELS 3 Zrotation Yrotation Xrotation
										End Site
										{
											OFFSET -0.51441 -0.00000 0.00000
										}
									}
								}
								JOINT RThumb
								{
									OFFSET 0 0 0
									CHANNELS 3 Zrotation Yrotation Xrotation
									End Site
									{
										OFFSET -0.52226 -0.00000 0.52226
									}
								}
							}
						}
					}
				}
			}
		}
	}
}
MOTION
Frames: 9
Frame Time: .0083333
38.6473 16.4229 -1.9023 537.6140 62.2725 543.2210 0.0000 0.0000 0.0000 -24.7899 -5.3187 -20.6283 4.9097 13.2813 40.4309 1.2475 -4.6239 -20.0916 1.0532 6.5257 18.3177 0.0000 0.0000 0.0000 11.4587 -6.0828 -24.7198 -6.1652 -14.5865 45.6412 -0.9249 -8.4171 -23.0754 -0.0205 0.9247 -2.5417 -5.9621 2.6702 11.5573 -1.5576 3.5698 7.6902 1.3575 1.8521 1.3717 12.3821 16.0565 -12.9085 -20.3205 27.0992 21.0476 -4.4955 11.5081 14.1094 0.0000 -0.0000 0.0000 -82.0670 -8.9512 39.8828 28.2366 -39.3331 -10.2733 -0.0000 0.0000 -25.1043 25.6083 -9.7946 -4.6614 -7.1250 0.0000 -0.0000 -0.9805 19.1431 0.6048 0.0000 -0.0000 0.0000 83.8816 3.2346 31.9628 -24.6795 35.8746 -8.1014 0.0000 -0.0000 -20.6359 -12.9524 -31.2571 6.8054 7.1250 -0.0000 -0.0000 21.8213 -60.5563 -8.5122
38.7579 16.4152 -1.9114 537.0110 60.4776 542.6430 0.0000 0.0000 0.0000 -24.9724 -5.9782 -20.0697 4.9352 13.3104 40.5418 1.1922 -5.2729 -19.5660 1.0073 6.3861 17.9089 0.0000 0.0000 0.0000 11.1178 -4.2063 -25.4864 -5.7999 -14.2316 44.1734 -0.9688 -8.1190 -23.2193 -0.0211 0.9375 -2.5770 -6.0361 2.7670 12.1700 -1.6472 3.6601 7.6275 1.2605 1.9169 0.9739 12.6709 16.3063 -12.6896 -20.4732 27.4294 20.7450 -4.5102 11.6916 14.0807 0.0000 -0.0000 0.0000 -81.8360 -9.0678 40.3721 28.3935 -39.4760 -10.3729 -0.0000 0.0000 -25.5772 25.4131 -10.9732 -5.1677 -7.1250 0.0000 -0.0000 -1.1829 17.8657 0.7631 0.0000 -0.0000 0.0000 83.7882 3.1088 32.3062 -25.0981 36.3041 -8.3479 0.0000 -0.0000 -20.5989 -13.8542 -30.7363 7.1842 7.1250 -0.0000 -0.0000 20.4492 -60.2884 -7.8183
38.8797 16.4140 -1.9302 536.7010 58.5110 542.4400 0.0000 0.0000 0.0000 -25.0657 -6.5873 -19.4835 4.9245 13.2983 40.4955 1.1444 -5.8899 -19.1228 0.8773 5.9713 16.7012 0.0000 0.0000 0.0000 10.7332 -2.6903 -26.3042 -5.4765 -13.9011 42.8427 -0.9989 -7.1958 -22.7901 -0.0436 1.3477 -3.7061 -5.8759 2.8302 12.4226 -1.6743 3.7601 7.6381 1.1181 1.9841 0.8533 12.7589 16.5469 -12.6869 -20.4531 27.7619 20.6114 -4.4188 11.8505 14.0993 -0.0000 0.0000 0.0000 -81.8737 -9.2445 40.5606 28.5025 -39.5747 -10.4422 -0.0000 0.0000 -25.5708 25.0990 -11.8563 -5.4972 -7.1250 0.0000 -0.0000 -1.4542 16.9303 0.9680 -0.0000 0.0000 0.0000 83.5808 3.0835 32.2398 -25.5454 36.7563 -8.6142 0.0000 -0.0000 -21.1304 -14.0425 -30.6731 7.2713 7.1250 -0.0000 -0.0000 20.2000 -60.2739 -7.7114
39.0136 16.4069 -1.9579 535.3270 56.2357 541.3140 0.0000 0.0000 0.0000 -25.8511 -7.4375 -18.5120 4.8703 13.2363 40.2595 1.0758 -6.8578 -18.5173 0.9673 6.2617 17.5458 0.0000 0.0000 0.0000 9.4579 -1.6676 -27.1155 -5.2058 -13.6119 41.7045 -1.0021 -6.0294 -22.0077 -0.0670 1.6695 -4.5932 -6.2457 2.7898 12.4605 -1.8757 3.7108 7.7434 1.1219 1.9641 0.9470 13.0438 16.8074 -12.4196 -20.7618 28.1153 20.1262 -4.4820 12.0452 14.0249 0.0000 0.0000 0.0000 -81.9591 -8.9233 40.2624 28.9731 -39.9968 -10.7434 -0.0000 0.0000 -25.0893 24.7948 -12.5177 -5.7177 -7.1250 0.0000 -0.0000 -1.7054 16.2411 1.1609 0.0000 0.0000 0.0000 83.4736 3.0862 32.0836 -25.9527 37.1620 -8.8591 0.0000 -0.0000 -21.6265 -14.5096 -30.3902 7.4588 7.1250 -0.0000 -0.0000 19.4866 -60.1193 -7.3542
39.1424 16.4164 -1.9855 533.8370 53.8248 540.0480 0.0000 0.0000 0.0000 -26.7930 -8.3957 -17.3820 4.7943 13.1484 39.9265 0.9975 -7.7683 -17.8683 1.1729 6.8741 19.3429 0.0000 0.0000 0.0000 7.8720 -0.6278 -27.5866 -4.9526 -13.3303 40.6177 -1.0080 -4.7828 -21.2670 -0.0814 1.8407 -5.0656 -6.7033 2.6961 12.6801 -2.1540 3.5750 7.8339 1.0944 1.9066 0.9366 13.3457 17.0300 -11.9845 -21.1548 28.4028 19.4828 -4.6067 12.2302 13.8611 -0.0000 0.0000 0.0000 -81.9572 -8.7086 40.0474 29.1948 -40.1931 -10.8862 -0.0000 0.0000 -24.9450 24.9613 -12.8826 -5.9251 -7.1250 0.0000 -0.0000 -1.6135 15.8246 1.1128 -0.0000 0.0000 0.0000 83.3951 2.9768 32.0514 -26.4043 37.6051 -9.1332 0.0000 -0.0000 -21.8173 -14.9693 -30.3181 7.6868 7.1250 -0.0000 -0.0000 18.9430 -60.1594 -7.1582
39.2616 16.4158 -2.0001 534.4590 51.4113 540.7060 0.0000 0.0000 0.0000 -26.4101 -9.0955 -16.6157 4.6844 13.0194 39.4410 0.9030 -8.4330 -17.0851 1.2407 7.0630 19.9021 0.0000 0.0000 0.0000 7.6214 0.7517 -28.0231 -4.7432 -13.0887 39.7013 -1.0287 -3.6170 -20.7858 -0.1803 2.7351 -7.5421 -5.9773 2.5587 12.8283 -2.0417 3.4759 7.8802 0.8157 1.8856 0.9346 13.3140 17.1771 -11.7680 -21.3564 28.5806 18.9520 -4.6330 12.3417 13.6712 0.0000 -0.0000 0.0000 -82.3595 -9.5898 39.8688 28.4532 -39.5301 -10.4109 -0.0000 0.0000 -24.7870 25.2539 -12.6997 -5.9205 -7.1250 0.0000 -0.0000 -1.3998 15.9912 0.9603 0.0000 -0.0000 0.0000 82.8164 3.0765 32.6972 -26.5399 37.7368 -9.2161 0.0000 -0.0000 -22.5070 -14.9018 -30.5856 7.7112 7.1250 -0.0000 -0.0000 19.2182 -60.3952 -7.3753
39.3835 16.4227 -2.0041 534.7390 49.2817 541.0630 0.0000 0.0000 0.0000 -26.1012 -9.7201 -15.9900 4.6097 12.9303 39.1081 0.7877 -9.2343 -16.1419 1.4075 7.5041 21.2177 0.0000 0.0000 0.0000 7.1542 2.4767 -28.2806 -4.5245 -12.8274 38.7259 -1.0012 -2.6039 -20.0088 -0.4145 4.1326 -11.4500 -5.5831 2.6505 12.9996 -1.9265 3.6430 7.8982 0.6873 1.9881 0.8629 13.0969 17.2430 -11.7632 -21.3489 28.6440 18.6297 -4.5786 12.3836 13.5106 -0.0000 0.0000 0.0000 -82.4569 -9.7161 39.9456 28.4201 -39.5001 -10.3898 -0.0000 0.0000 -24.9117 25.2798 -12.3388 -5.7628 -7.1250 0.0000 -0.0000 -1.3585 16.3830 0.9205 -0.0000 0.0000 0.0000 82.3900 3.0688 32.5805 -26.7100 37.9013 -9.3205 0.0000 -0.0000 -22.5960 -14.4235 -30.8600 7.5153 7.1250 -0.0000 -0.0000 19.9416 -60.5386 -7.7343
39.5224 16.4242 -2.0065 533.9580 47.1134 540.5590 0.0000 0.0000 0.0000 -26.5297 -10.2882 -15.3732 4.6059 12.9258 39.0912 0.6757 -10.1338 -15.2728 1.5202 7.7857 22.0650 0.0000 0.0000 0.0000 5.8061 4.2201 -28.2812 -4.2778 -12.5212 37.6016 -0.9470 -1.6957 -19.0693 -0.6388 5.1136 -14.2327 -6.0013 2.8217 13.1459 -2.0225 3.8425 7.8953 0.7850 2.0909 0.7608 12.7732 17.2858 -11.9748 -20.9643 28.6009 18.5614 -4.3931 12.3669 13.3749 0.0000 -0.0000 0.0000 -82.5643 -9.4233 39.8347 28.3988 -39.4808 -10.3763 -0.0000 0.0000 -24.9885 25.1957 -12.8285 -5.9635 -7.1250 0.0000 -0.0000 -1.4484 15.8569 0.9979 0.0000 -0.0000 0.0000 82.1290 2.9195 32.3926 -26.8029 37.9906 -9.3776 0.0000 -0.0000 -22.5785 -14.3446 -30.8674 7.4746 7.1250 -0.0000 -0.0000 20.0315 -60.5267 -7.7651
39.6759 16.4290 -2.0158 534.3420 44.2510 541.0210 0.0000 0.0000 0.0000 -26.0688 -11.1567 -14.8713 4.6300 12.9546 39.1987 0.5499 -11.1874 -14.3523 1.5340 7.8193 22.1666 0.0000 0.0000 0.0000 5.2524 5.4051 -27.9869 -4.0392 -12.2124 36.4874 -0.9307 -0.5926 -18.4555 -0.6703 5.2357 -14.5820 -5.5951 2.6332 13.0772 -1.9018 3.6612 7.9190 0.7142 2.0157 0.8423 12.3772 17.2808 -12.4607 -20.3988 28.4347 18.6390 -4.1484 12.2737 13.2801 -0.0000 0.0000 0.0000 -82.8229 -9.3005 39.2134 28.0158 -39.1308 -10.1337 -0.0000 0.0000 -24.7516 25.1183 -13.6826 -6.3281 -7.1250 0.0000 -0.0000 -1.5596 14.9339 1.1054 -0.0000 0.0000 0.0000 81.8103 2.8786 32.5949 -26.7830 37.9714 -9.3653 0.0000 -0.0000 -22.6521 -14.1596 -30.9722 7.3975 7.1250 -0.0000 -0.0000 20.3115 -60.5804 -7.9050
